<svg width="66" height="1061" viewBox="0 0 66 1061" fill="none" xmlns="http://www.w3.org/2000/svg">
<path d="M34.6382 23.1782C40.2552 30.8133 43.0637 69.6853 43.7658 88.1669C45.4041 133.462 43.485 243.595 22.702 321.763C1.91903 399.931 29.7233 548.087 42.5956 618.984C49.3829 679.428 47.6978 797.771 31.5956 833.038C28.3971 839.855 23.4041 862.056 23.4041 888.028C23.4041 914 25.9786 938.141 31.5956 964.5C38.851 982.224 39.1596 1014.28 52.5 1037" stroke="#F8BE7A" stroke-width="22"/>
<rect x="22.9362" y="71.8052" width="37.4468" height="42.7199" rx="11" fill="#69384B"/>
<rect x="15.4468" width="37.4468" height="42.7199" rx="11" fill="#69384B"/>
<rect x="24.8085" y="143.612" width="37.4468" height="42.7199" rx="11" fill="#69384B"/>
<rect x="15.4468" y="215.417" width="37.4468" height="42.7199" rx="11" fill="#69384B"/>
<rect x="5.61694" y="287.223" width="37.4468" height="42.7199" rx="11" fill="#69384B"/>
<rect y="359.028" width="37.4468" height="42.7199" rx="11" fill="#69384B"/>
<rect x="5.61694" y="430.835" width="37.4468" height="42.7199" rx="11" fill="#69384B"/>
<rect x="15.4468" y="502.64" width="37.4468" height="42.7199" rx="11" fill="#69384B"/>
<rect x="22.9362" y="574.446" width="37.4468" height="42.7199" rx="11" fill="#69384B"/>
<rect x="26.2128" y="646.251" width="37.4468" height="42.7199" rx="11" fill="#69384B"/>
<rect x="22.9362" y="718.057" width="37.4468" height="42.7199" rx="11" fill="#69384B"/>
<rect x="17.3192" y="789.863" width="37.4468" height="42.7199" rx="11" fill="#69384B"/>
<rect x="7.48938" y="861.668" width="37.4468" height="42.7199" rx="11" fill="#69384B"/>
<rect x="12.1702" y="939.475" width="37.4468" height="42.7199" rx="11" fill="#69384B"/>
<rect x="28.5532" y="1018.28" width="37.4468" height="42.7199" rx="11" fill="#69384B"/>
</svg>
