<svg width="141" height="1153" viewBox="0 0 141 1153" fill="none" xmlns="http://www.w3.org/2000/svg">
<path d="M74 25.5C86 33.9 92 76.6667 93.5 97C97 146.833 92.9 268 48.5 354C4.09999 440 63.5 603 91 681C105.5 747.5 101.9 877.7 67.5 916.5C60.6667 924 53.3333 951.333 50 977C46.6667 1002.67 55.5 1020 67.5 1049C83 1068.5 81.5 1094.5 110 1119.5" stroke="#F8BE7A" stroke-width="22"/>
<rect x="49" y="79" width="80" height="47" rx="11" fill="#69384B"/>
<rect x="33" width="80" height="47" rx="11" fill="#69384B"/>
<rect x="53" y="158" width="80" height="47" rx="11" fill="#69384B"/>
<rect x="33" y="237" width="80" height="47" rx="11" fill="#69384B"/>
<rect x="12" y="316" width="80" height="47" rx="11" fill="#69384B"/>
<rect y="395" width="80" height="47" rx="11" fill="#69384B"/>
<rect x="12" y="474" width="80" height="47" rx="11" fill="#69384B"/>
<rect x="33" y="553" width="80" height="47" rx="11" fill="#69384B"/>
<rect x="49" y="632" width="80" height="47" rx="11" fill="#69384B"/>
<rect x="56" y="711" width="80" height="47" rx="11" fill="#69384B"/>
<rect x="49" y="790" width="80" height="47" rx="11" fill="#69384B"/>
<rect x="37" y="869" width="80" height="47" rx="11" fill="#69384B"/>
<rect x="16" y="948" width="80" height="47" rx="11" fill="#69384B"/>
<rect x="26" y="1027" width="80" height="47" rx="11" fill="#69384B"/>
<rect x="61" y="1106" width="80" height="47" rx="11" fill="#69384B"/>
</svg>
