<svg width="34" height="34" viewBox="0 0 34 34" fill="none" xmlns="http://www.w3.org/2000/svg">
<circle cx="17" cy="17" r="17" fill="#F8BE7A"/>
<path fill-rule="evenodd" clip-rule="evenodd" d="M12.8773 7.06C13.9436 7.01091 14.2836 7 17 7C19.7164 7 20.0564 7.01182 21.1218 7.06C22.1873 7.10818 22.9145 7.27818 23.5509 7.52455C24.2173 7.77636 24.8218 8.17 25.3218 8.67909C25.8309 9.17818 26.2236 9.78182 26.4745 10.4491C26.7218 11.0855 26.8909 11.8127 26.94 12.8764C26.9891 13.9445 27 14.2845 27 17C27 19.7164 26.9882 20.0564 26.94 21.1227C26.8918 22.1864 26.7218 22.9136 26.4745 23.55C26.2236 24.2174 25.8303 24.822 25.3218 25.3218C24.8218 25.8309 24.2173 26.2236 23.5509 26.4745C22.9145 26.7218 22.1873 26.8909 21.1236 26.94C20.0564 26.9891 19.7164 27 17 27C14.2836 27 13.9436 26.9882 12.8773 26.94C11.8136 26.8918 11.0864 26.7218 10.45 26.4745C9.78266 26.2236 9.17802 25.8302 8.67818 25.3218C8.16944 24.8224 7.77574 24.2181 7.52455 23.5509C7.27818 22.9145 7.10909 22.1873 7.06 21.1236C7.01091 20.0555 7 19.7155 7 17C7 14.2836 7.01182 13.9436 7.06 12.8782C7.10818 11.8127 7.27818 11.0855 7.52455 10.4491C7.77611 9.78189 8.17011 9.17756 8.67909 8.67818C9.17822 8.16955 9.78225 7.77586 10.4491 7.52455C11.0855 7.27818 11.8127 7.10909 12.8764 7.06H12.8773ZM21.0409 8.86C19.9864 8.81182 19.67 8.80182 17 8.80182C14.33 8.80182 14.0136 8.81182 12.9591 8.86C11.9836 8.90455 11.4545 9.06727 11.1018 9.20455C10.6355 9.38636 10.3018 9.60182 9.95182 9.95182C9.62004 10.2746 9.36471 10.6675 9.20455 11.1018C9.06727 11.4545 8.90455 11.9836 8.86 12.9591C8.81182 14.0136 8.80182 14.33 8.80182 17C8.80182 19.67 8.81182 19.9864 8.86 21.0409C8.90455 22.0164 9.06727 22.5455 9.20455 22.8982C9.36455 23.3318 9.62 23.7255 9.95182 24.0482C10.2745 24.38 10.6682 24.6355 11.1018 24.7955C11.4545 24.9327 11.9836 25.0955 12.9591 25.14C14.0136 25.1882 14.3291 25.1982 17 25.1982C19.6709 25.1982 19.9864 25.1882 21.0409 25.14C22.0164 25.0955 22.5455 24.9327 22.8982 24.7955C23.3645 24.6136 23.6982 24.3982 24.0482 24.0482C24.38 23.7255 24.6355 23.3318 24.7955 22.8982C24.9327 22.5455 25.0955 22.0164 25.14 21.0409C25.1882 19.9864 25.1982 19.67 25.1982 17C25.1982 14.33 25.1882 14.0136 25.14 12.9591C25.0955 11.9836 24.9327 11.4545 24.7955 11.1018C24.6136 10.6355 24.3982 10.3018 24.0482 9.95182C23.7254 9.62006 23.3325 9.36474 22.8982 9.20455C22.5455 9.06727 22.0164 8.90455 21.0409 8.86ZM15.7227 20.0827C16.4361 20.3797 17.2303 20.4197 17.9699 20.1961C18.7095 19.9725 19.3485 19.499 19.7778 18.8566C20.2071 18.2142 20.4001 17.4426 20.3237 16.6737C20.2473 15.9049 19.9064 15.1863 19.3591 14.6409C19.0102 14.2923 18.5884 14.0253 18.1239 13.8592C17.6595 13.6932 17.164 13.6321 16.6732 13.6806C16.1823 13.729 15.7083 13.8856 15.2853 14.1392C14.8622 14.3928 14.5007 14.737 14.2266 15.1471C13.9526 15.5572 13.7729 16.023 13.7005 16.5109C13.628 16.9988 13.6647 17.4966 13.8078 17.9687C13.9508 18.4407 14.1968 18.8751 14.5279 19.2407C14.8591 19.6062 15.2671 19.8938 15.7227 20.0827ZM13.3655 13.3655C13.8428 12.8882 14.4094 12.5095 15.033 12.2512C15.6566 11.9929 16.325 11.86 17 11.86C17.675 11.86 18.3434 11.9929 18.967 12.2512C19.5906 12.5095 20.1573 12.8882 20.6345 13.3655C21.1118 13.8428 21.4905 14.4094 21.7488 15.033C22.0071 15.6566 22.14 16.325 22.14 17C22.14 17.675 22.0071 18.3434 21.7488 18.967C21.4905 19.5906 21.1118 20.1573 20.6345 20.6345C19.6706 21.5985 18.3632 22.14 17 22.14C15.6368 22.14 14.3294 21.5985 13.3655 20.6345C12.4015 19.6706 11.86 18.3632 11.86 17C11.86 15.6368 12.4015 14.3294 13.3655 13.3655ZM23.28 12.6255C23.3983 12.5139 23.493 12.3797 23.5585 12.2309C23.624 12.0821 23.6589 11.9216 23.6613 11.759C23.6637 11.5964 23.6334 11.435 23.5723 11.2844C23.5111 11.1337 23.4204 10.9968 23.3054 10.8819C23.1904 10.7669 23.0536 10.6761 22.9029 10.615C22.7522 10.5539 22.5908 10.5236 22.4282 10.526C22.2657 10.5284 22.1052 10.5633 21.9564 10.6288C21.8076 10.6943 21.6734 10.789 21.5618 10.9073C21.3448 11.1373 21.226 11.4428 21.2306 11.759C21.2352 12.0752 21.3629 12.3772 21.5865 12.6008C21.8101 12.8244 22.1121 12.952 22.4282 12.9566C22.7444 12.9612 23.05 12.8424 23.28 12.6255Z" fill="#69384B"/>
</svg>
