<svg width="34" height="34" viewBox="0 0 34 34" fill="none" xmlns="http://www.w3.org/2000/svg">
<circle cx="17" cy="17" r="16.5" fill="#F8BE7A" stroke="#F8BE7A"/>
<path fill-rule="evenodd" clip-rule="evenodd" d="M21.5823 18.985C21.3328 18.8608 20.1095 18.2625 19.8817 18.1792C19.6539 18.0967 19.4881 18.0558 19.3215 18.3042C19.1557 18.5508 18.6793 19.1092 18.5344 19.2742C18.3887 19.44 18.2438 19.46 17.9952 19.3367C17.7465 19.2117 16.9443 18.9508 15.9939 18.1075C15.2545 17.4509 14.7546 16.64 14.6098 16.3917C14.4649 16.1442 14.5939 16.01 14.7186 15.8867C14.8308 15.7759 14.9673 15.5975 15.0921 15.4534C15.2169 15.3084 15.2579 15.205 15.3408 15.0392C15.4245 14.8742 15.3826 14.73 15.3198 14.6059C15.2579 14.4817 14.7605 13.2625 14.5528 12.7667C14.351 12.2842 14.1459 12.35 13.9935 12.3417C13.8478 12.335 13.682 12.3334 13.5162 12.3334C13.3504 12.3334 13.0808 12.395 12.853 12.6434C12.6244 12.8909 11.9822 13.49 11.9822 14.7092C11.9822 15.9275 12.8731 17.105 12.9979 17.2709C13.1227 17.4359 14.7521 19.9375 17.2482 21.01C17.8428 21.265 18.3058 21.4175 18.6667 21.5308C19.2629 21.72 19.8055 21.6933 20.2342 21.6292C20.7115 21.5583 21.7063 21.03 21.9139 20.4517C22.1208 19.8733 22.1207 19.3775 22.0588 19.2742C21.9968 19.1708 21.831 19.1092 21.5815 18.985H21.5823ZM17.0423 25.1542H17.0389C15.5563 25.1544 14.101 24.7578 12.8254 24.0058L12.524 23.8275L9.39062 24.6458L10.2271 21.6058L10.0303 21.2942C9.20149 19.9811 8.76286 18.4615 8.76512 16.9109C8.76679 12.3692 12.4796 8.6742 17.0456 8.6742C19.2562 8.6742 21.3345 9.53253 22.897 11.0892C23.6676 11.853 24.2785 12.7613 24.6941 13.7616C25.1098 14.7619 25.322 15.8343 25.3186 16.9167C25.3169 21.4583 21.6041 25.1542 17.0423 25.1542ZM24.086 9.9067C23.1634 8.98247 22.0657 8.24965 20.8564 7.7507C19.6472 7.25175 18.3505 6.9966 17.0414 7.00003C11.5535 7.00003 7.08541 11.4459 7.08373 16.91C7.08119 18.649 7.53956 20.3578 8.4126 21.8642L7 27L12.2786 25.6217C13.7388 26.4134 15.3752 26.8283 17.0381 26.8283H17.0423C22.5302 26.8283 26.9983 22.3825 27 16.9175C27.004 15.6152 26.7485 14.3251 26.2484 13.1217C25.7482 11.9183 25.0132 10.8256 24.086 9.9067Z" fill="#69384B"/>
</svg>
